<mxfile host="app.diagrams.net" agent="Mozilla/5.0 (Windows NT 10.0; Win64; x64) AppleWebKit/537.36 (KHTML, like Gecko) Chrome/130.0.0.0 Safari/537.36 Edg/130.0.0.0" version="24.8.3" pages="3">
  <diagram name="Diagrama Taller 1" id="RLStZQRMeVhz8EXBQSYT">
    <mxGraphModel grid="1" page="1" gridSize="10" guides="1" tooltips="1" connect="1" arrows="1" fold="1" pageScale="1" pageWidth="827" pageHeight="1169" math="0" shadow="0">
      <root>
        <mxCell id="0" />
        <mxCell id="1" parent="0" />
        <mxCell id="O9e-W4EGKh9RpnOx4HyX-1" style="edgeStyle=orthogonalEdgeStyle;rounded=0;orthogonalLoop=1;jettySize=auto;html=1;exitX=1;exitY=0.75;exitDx=0;exitDy=0;" edge="1" parent="1" source="O9e-W4EGKh9RpnOx4HyX-7" target="O9e-W4EGKh9RpnOx4HyX-15">
          <mxGeometry relative="1" as="geometry" />
        </mxCell>
        <mxCell id="O9e-W4EGKh9RpnOx4HyX-2" style="edgeStyle=orthogonalEdgeStyle;rounded=0;orthogonalLoop=1;jettySize=auto;html=1;exitX=1;exitY=0.25;exitDx=0;exitDy=0;entryX=0.5;entryY=1;entryDx=0;entryDy=0;" edge="1" parent="1" source="O9e-W4EGKh9RpnOx4HyX-7" target="O9e-W4EGKh9RpnOx4HyX-11">
          <mxGeometry relative="1" as="geometry" />
        </mxCell>
        <mxCell id="O9e-W4EGKh9RpnOx4HyX-3" style="edgeStyle=orthogonalEdgeStyle;rounded=0;orthogonalLoop=1;jettySize=auto;html=1;exitX=0.5;exitY=1;exitDx=0;exitDy=0;" edge="1" parent="1" source="O9e-W4EGKh9RpnOx4HyX-7" target="O9e-W4EGKh9RpnOx4HyX-34">
          <mxGeometry relative="1" as="geometry" />
        </mxCell>
        <mxCell id="O9e-W4EGKh9RpnOx4HyX-4" style="edgeStyle=orthogonalEdgeStyle;rounded=0;orthogonalLoop=1;jettySize=auto;html=1;exitX=0.5;exitY=0;exitDx=0;exitDy=0;" edge="1" parent="1" source="O9e-W4EGKh9RpnOx4HyX-7" target="O9e-W4EGKh9RpnOx4HyX-48">
          <mxGeometry relative="1" as="geometry" />
        </mxCell>
        <mxCell id="O9e-W4EGKh9RpnOx4HyX-5" style="edgeStyle=orthogonalEdgeStyle;rounded=0;orthogonalLoop=1;jettySize=auto;html=1;exitX=0;exitY=0.75;exitDx=0;exitDy=0;" edge="1" parent="1" source="O9e-W4EGKh9RpnOx4HyX-7" target="O9e-W4EGKh9RpnOx4HyX-24">
          <mxGeometry relative="1" as="geometry" />
        </mxCell>
        <mxCell id="O9e-W4EGKh9RpnOx4HyX-6" style="edgeStyle=orthogonalEdgeStyle;rounded=0;orthogonalLoop=1;jettySize=auto;html=1;exitX=0;exitY=0.25;exitDx=0;exitDy=0;entryX=0.5;entryY=0;entryDx=0;entryDy=0;" edge="1" parent="1" source="O9e-W4EGKh9RpnOx4HyX-7" target="O9e-W4EGKh9RpnOx4HyX-20">
          <mxGeometry relative="1" as="geometry">
            <mxPoint x="1330" y="410" as="targetPoint" />
          </mxGeometry>
        </mxCell>
        <mxCell id="O9e-W4EGKh9RpnOx4HyX-7" value="Sistema de Gestión&amp;nbsp;&lt;div&gt;Clínica Veterinaria&lt;/div&gt;" style="rounded=0;whiteSpace=wrap;html=1;" vertex="1" parent="1">
          <mxGeometry x="1840" y="630" width="120" height="60" as="geometry" />
        </mxCell>
        <mxCell id="O9e-W4EGKh9RpnOx4HyX-8" style="edgeStyle=orthogonalEdgeStyle;rounded=0;orthogonalLoop=1;jettySize=auto;html=1;exitX=1;exitY=0.5;exitDx=0;exitDy=0;" edge="1" parent="1" source="O9e-W4EGKh9RpnOx4HyX-11" target="O9e-W4EGKh9RpnOx4HyX-38">
          <mxGeometry relative="1" as="geometry" />
        </mxCell>
        <mxCell id="O9e-W4EGKh9RpnOx4HyX-9" style="edgeStyle=orthogonalEdgeStyle;rounded=0;orthogonalLoop=1;jettySize=auto;html=1;exitX=0.5;exitY=0;exitDx=0;exitDy=0;entryX=0.5;entryY=1;entryDx=0;entryDy=0;" edge="1" parent="1" source="O9e-W4EGKh9RpnOx4HyX-11" target="O9e-W4EGKh9RpnOx4HyX-40">
          <mxGeometry relative="1" as="geometry" />
        </mxCell>
        <mxCell id="O9e-W4EGKh9RpnOx4HyX-10" style="edgeStyle=orthogonalEdgeStyle;rounded=0;orthogonalLoop=1;jettySize=auto;html=1;exitX=0;exitY=0.5;exitDx=0;exitDy=0;entryX=0.5;entryY=1;entryDx=0;entryDy=0;" edge="1" parent="1" source="O9e-W4EGKh9RpnOx4HyX-11" target="O9e-W4EGKh9RpnOx4HyX-42">
          <mxGeometry relative="1" as="geometry" />
        </mxCell>
        <mxCell id="O9e-W4EGKh9RpnOx4HyX-11" value="Gestión de Ingresos" style="shape=process;whiteSpace=wrap;html=1;backgroundOutline=1;" vertex="1" parent="1">
          <mxGeometry x="2900" y="560" width="120" height="60" as="geometry" />
        </mxCell>
        <mxCell id="O9e-W4EGKh9RpnOx4HyX-12" style="edgeStyle=orthogonalEdgeStyle;rounded=0;orthogonalLoop=1;jettySize=auto;html=1;exitX=0.5;exitY=1;exitDx=0;exitDy=0;" edge="1" parent="1" source="O9e-W4EGKh9RpnOx4HyX-15" target="O9e-W4EGKh9RpnOx4HyX-44">
          <mxGeometry relative="1" as="geometry" />
        </mxCell>
        <mxCell id="O9e-W4EGKh9RpnOx4HyX-13" style="edgeStyle=orthogonalEdgeStyle;rounded=0;orthogonalLoop=1;jettySize=auto;html=1;exitX=1;exitY=0.5;exitDx=0;exitDy=0;" edge="1" parent="1" source="O9e-W4EGKh9RpnOx4HyX-15" target="O9e-W4EGKh9RpnOx4HyX-45">
          <mxGeometry relative="1" as="geometry" />
        </mxCell>
        <mxCell id="O9e-W4EGKh9RpnOx4HyX-14" style="edgeStyle=orthogonalEdgeStyle;rounded=0;orthogonalLoop=1;jettySize=auto;html=1;exitX=0;exitY=0.5;exitDx=0;exitDy=0;" edge="1" parent="1" source="O9e-W4EGKh9RpnOx4HyX-15" target="O9e-W4EGKh9RpnOx4HyX-43">
          <mxGeometry relative="1" as="geometry" />
        </mxCell>
        <mxCell id="O9e-W4EGKh9RpnOx4HyX-15" value="Gestión de Pagos" style="shape=process;whiteSpace=wrap;html=1;backgroundOutline=1;" vertex="1" parent="1">
          <mxGeometry x="2440" y="800" width="120" height="60" as="geometry" />
        </mxCell>
        <mxCell id="O9e-W4EGKh9RpnOx4HyX-16" style="edgeStyle=orthogonalEdgeStyle;rounded=0;orthogonalLoop=1;jettySize=auto;html=1;exitX=0.75;exitY=1;exitDx=0;exitDy=0;" edge="1" parent="1" source="O9e-W4EGKh9RpnOx4HyX-20" target="O9e-W4EGKh9RpnOx4HyX-30">
          <mxGeometry relative="1" as="geometry" />
        </mxCell>
        <mxCell id="O9e-W4EGKh9RpnOx4HyX-17" style="edgeStyle=orthogonalEdgeStyle;rounded=0;orthogonalLoop=1;jettySize=auto;html=1;exitX=0.25;exitY=1;exitDx=0;exitDy=0;" edge="1" parent="1" source="O9e-W4EGKh9RpnOx4HyX-20" target="O9e-W4EGKh9RpnOx4HyX-29">
          <mxGeometry relative="1" as="geometry" />
        </mxCell>
        <mxCell id="O9e-W4EGKh9RpnOx4HyX-18" style="edgeStyle=orthogonalEdgeStyle;rounded=0;orthogonalLoop=1;jettySize=auto;html=1;exitX=0;exitY=0.5;exitDx=0;exitDy=0;" edge="1" parent="1" source="O9e-W4EGKh9RpnOx4HyX-20" target="O9e-W4EGKh9RpnOx4HyX-52">
          <mxGeometry relative="1" as="geometry" />
        </mxCell>
        <mxCell id="O9e-W4EGKh9RpnOx4HyX-19" style="edgeStyle=orthogonalEdgeStyle;rounded=0;orthogonalLoop=1;jettySize=auto;html=1;exitX=1;exitY=0.5;exitDx=0;exitDy=0;" edge="1" parent="1" source="O9e-W4EGKh9RpnOx4HyX-20" target="O9e-W4EGKh9RpnOx4HyX-28">
          <mxGeometry relative="1" as="geometry" />
        </mxCell>
        <mxCell id="O9e-W4EGKh9RpnOx4HyX-20" value="Gestión de Mascotas" style="shape=process;whiteSpace=wrap;html=1;backgroundOutline=1;" vertex="1" parent="1">
          <mxGeometry x="660" y="690" width="120" height="60" as="geometry" />
        </mxCell>
        <mxCell id="O9e-W4EGKh9RpnOx4HyX-21" style="edgeStyle=orthogonalEdgeStyle;rounded=0;orthogonalLoop=1;jettySize=auto;html=1;exitX=0;exitY=0.5;exitDx=0;exitDy=0;" edge="1" parent="1" source="O9e-W4EGKh9RpnOx4HyX-24" target="O9e-W4EGKh9RpnOx4HyX-25">
          <mxGeometry relative="1" as="geometry" />
        </mxCell>
        <mxCell id="O9e-W4EGKh9RpnOx4HyX-22" style="edgeStyle=orthogonalEdgeStyle;rounded=0;orthogonalLoop=1;jettySize=auto;html=1;exitX=0.5;exitY=1;exitDx=0;exitDy=0;" edge="1" parent="1" source="O9e-W4EGKh9RpnOx4HyX-24" target="O9e-W4EGKh9RpnOx4HyX-26">
          <mxGeometry relative="1" as="geometry" />
        </mxCell>
        <mxCell id="O9e-W4EGKh9RpnOx4HyX-23" style="edgeStyle=orthogonalEdgeStyle;rounded=0;orthogonalLoop=1;jettySize=auto;html=1;exitX=1;exitY=0.5;exitDx=0;exitDy=0;entryX=0.5;entryY=0;entryDx=0;entryDy=0;" edge="1" parent="1" source="O9e-W4EGKh9RpnOx4HyX-24" target="O9e-W4EGKh9RpnOx4HyX-27">
          <mxGeometry relative="1" as="geometry" />
        </mxCell>
        <mxCell id="O9e-W4EGKh9RpnOx4HyX-24" value="Gestión de Clientes" style="shape=process;whiteSpace=wrap;html=1;backgroundOutline=1;" vertex="1" parent="1">
          <mxGeometry x="1280" y="800" width="120" height="60" as="geometry" />
        </mxCell>
        <mxCell id="O9e-W4EGKh9RpnOx4HyX-25" value="Registro de Clientes" style="shape=process;whiteSpace=wrap;html=1;backgroundOutline=1;" vertex="1" parent="1">
          <mxGeometry x="1080" y="880" width="120" height="60" as="geometry" />
        </mxCell>
        <mxCell id="O9e-W4EGKh9RpnOx4HyX-26" value="Modificación de&amp;nbsp;&lt;div&gt;Datos&lt;span style=&quot;color: rgba(0, 0, 0, 0); font-family: monospace; font-size: 0px; text-align: start; text-wrap-mode: nowrap; background-color: initial;&quot;&gt;%3CmxGraphModel%3E%3Croot%3E%3CmxCell%20id%3D%220%22%2F%3E%3CmxCell%20id%3D%221%22%20parent%3D%220%22%2F%3E%3CmxCell%20id%3D%222%22%20value%3D%22Gesti%C3%B3n%20de%20Pagos%22%20style%3D%22shape%3Dprocess%3BwhiteSpace%3Dwrap%3Bhtml%3D1%3BbackgroundOutline%3D1%3B%22%20vertex%3D%221%22%20parent%3D%221%22%3E%3CmxGeometry%20x%3D%22550%22%20y%3D%22200%22%20width%3D%22120%22%20height%3D%2260%22%20as%3D%22geometry%22%2F%3E%3C%2FmxCell%3E%3C%2Froot%3E%3C%2FmxGraphModel%3E&lt;/span&gt;&lt;/div&gt;" style="shape=process;whiteSpace=wrap;html=1;backgroundOutline=1;" vertex="1" parent="1">
          <mxGeometry x="1280" y="920" width="120" height="60" as="geometry" />
        </mxCell>
        <mxCell id="O9e-W4EGKh9RpnOx4HyX-27" value="Consulta de&amp;nbsp;&lt;div&gt;Datos&lt;/div&gt;" style="shape=process;whiteSpace=wrap;html=1;backgroundOutline=1;" vertex="1" parent="1">
          <mxGeometry x="1480" y="880" width="120" height="60" as="geometry" />
        </mxCell>
        <mxCell id="O9e-W4EGKh9RpnOx4HyX-28" value="Registro de Mascotas" style="shape=process;whiteSpace=wrap;html=1;backgroundOutline=1;" vertex="1" parent="1">
          <mxGeometry x="880" y="880" width="120" height="60" as="geometry" />
        </mxCell>
        <mxCell id="O9e-W4EGKh9RpnOx4HyX-29" value="Cambio de Propietario" style="shape=process;whiteSpace=wrap;html=1;backgroundOutline=1;" vertex="1" parent="1">
          <mxGeometry x="560" y="880" width="120" height="60" as="geometry" />
        </mxCell>
        <mxCell id="O9e-W4EGKh9RpnOx4HyX-30" value="Gestión de Mascotas" style="shape=process;whiteSpace=wrap;html=1;backgroundOutline=1;" vertex="1" parent="1">
          <mxGeometry x="720" y="880" width="120" height="60" as="geometry" />
        </mxCell>
        <mxCell id="O9e-W4EGKh9RpnOx4HyX-31" style="edgeStyle=orthogonalEdgeStyle;rounded=0;orthogonalLoop=1;jettySize=auto;html=1;exitX=0.5;exitY=1;exitDx=0;exitDy=0;" edge="1" parent="1" source="O9e-W4EGKh9RpnOx4HyX-34" target="O9e-W4EGKh9RpnOx4HyX-36">
          <mxGeometry relative="1" as="geometry" />
        </mxCell>
        <mxCell id="O9e-W4EGKh9RpnOx4HyX-32" style="edgeStyle=orthogonalEdgeStyle;rounded=0;orthogonalLoop=1;jettySize=auto;html=1;exitX=0;exitY=0.5;exitDx=0;exitDy=0;" edge="1" parent="1" source="O9e-W4EGKh9RpnOx4HyX-34" target="O9e-W4EGKh9RpnOx4HyX-35">
          <mxGeometry relative="1" as="geometry" />
        </mxCell>
        <mxCell id="O9e-W4EGKh9RpnOx4HyX-33" style="edgeStyle=orthogonalEdgeStyle;rounded=0;orthogonalLoop=1;jettySize=auto;html=1;exitX=1;exitY=0.5;exitDx=0;exitDy=0;entryX=0.5;entryY=0;entryDx=0;entryDy=0;" edge="1" parent="1" source="O9e-W4EGKh9RpnOx4HyX-34" target="O9e-W4EGKh9RpnOx4HyX-37">
          <mxGeometry relative="1" as="geometry" />
        </mxCell>
        <mxCell id="O9e-W4EGKh9RpnOx4HyX-34" value="Gestión de Consultas" style="shape=process;whiteSpace=wrap;html=1;backgroundOutline=1;" vertex="1" parent="1">
          <mxGeometry x="1840" y="800" width="120" height="60" as="geometry" />
        </mxCell>
        <mxCell id="O9e-W4EGKh9RpnOx4HyX-35" value="Registro de Consultas" style="shape=process;whiteSpace=wrap;html=1;backgroundOutline=1;" vertex="1" parent="1">
          <mxGeometry x="1680" y="930" width="120" height="60" as="geometry" />
        </mxCell>
        <mxCell id="O9e-W4EGKh9RpnOx4HyX-36" value="Control de Tiempo" style="shape=process;whiteSpace=wrap;html=1;backgroundOutline=1;" vertex="1" parent="1">
          <mxGeometry x="1840" y="930" width="120" height="60" as="geometry" />
        </mxCell>
        <mxCell id="O9e-W4EGKh9RpnOx4HyX-37" value="Gestión de Recetas" style="shape=process;whiteSpace=wrap;html=1;backgroundOutline=1;" vertex="1" parent="1">
          <mxGeometry x="2000" y="930" width="120" height="60" as="geometry" />
        </mxCell>
        <mxCell id="O9e-W4EGKh9RpnOx4HyX-38" value="Registro de Ingresos" style="shape=process;whiteSpace=wrap;html=1;backgroundOutline=1;" vertex="1" parent="1">
          <mxGeometry x="3080" y="450" width="120" height="60" as="geometry" />
        </mxCell>
        <mxCell id="O9e-W4EGKh9RpnOx4HyX-39" style="edgeStyle=orthogonalEdgeStyle;rounded=0;orthogonalLoop=1;jettySize=auto;html=1;exitX=0.5;exitY=0;exitDx=0;exitDy=0;entryX=0.5;entryY=0;entryDx=0;entryDy=0;" edge="1" parent="1" source="O9e-W4EGKh9RpnOx4HyX-40" target="O9e-W4EGKh9RpnOx4HyX-50">
          <mxGeometry relative="1" as="geometry" />
        </mxCell>
        <mxCell id="O9e-W4EGKh9RpnOx4HyX-40" value="Monitoreo de Tiempo" style="shape=process;whiteSpace=wrap;html=1;backgroundOutline=1;" vertex="1" parent="1">
          <mxGeometry x="2900" y="450" width="120" height="60" as="geometry" />
        </mxCell>
        <mxCell id="O9e-W4EGKh9RpnOx4HyX-41" style="edgeStyle=orthogonalEdgeStyle;rounded=0;orthogonalLoop=1;jettySize=auto;html=1;exitX=0.5;exitY=0;exitDx=0;exitDy=0;entryX=1;entryY=0.5;entryDx=0;entryDy=0;" edge="1" parent="1" source="O9e-W4EGKh9RpnOx4HyX-42" target="O9e-W4EGKh9RpnOx4HyX-50">
          <mxGeometry relative="1" as="geometry" />
        </mxCell>
        <mxCell id="O9e-W4EGKh9RpnOx4HyX-42" value="Acceso a Camaras" style="shape=process;whiteSpace=wrap;html=1;backgroundOutline=1;" vertex="1" parent="1">
          <mxGeometry x="2720" y="490" width="120" height="60" as="geometry" />
        </mxCell>
        <mxCell id="O9e-W4EGKh9RpnOx4HyX-43" value="Pagos Online" style="shape=process;whiteSpace=wrap;html=1;backgroundOutline=1;" vertex="1" parent="1">
          <mxGeometry x="2280" y="930" width="120" height="60" as="geometry" />
        </mxCell>
        <mxCell id="O9e-W4EGKh9RpnOx4HyX-44" value="Gestión de Recargos" style="shape=process;whiteSpace=wrap;html=1;backgroundOutline=1;" vertex="1" parent="1">
          <mxGeometry x="2440" y="930" width="120" height="60" as="geometry" />
        </mxCell>
        <mxCell id="O9e-W4EGKh9RpnOx4HyX-45" value="Historial de Pagos" style="shape=process;whiteSpace=wrap;html=1;backgroundOutline=1;" vertex="1" parent="1">
          <mxGeometry x="2600" y="930" width="120" height="60" as="geometry" />
        </mxCell>
        <mxCell id="O9e-W4EGKh9RpnOx4HyX-46" style="edgeStyle=orthogonalEdgeStyle;rounded=0;orthogonalLoop=1;jettySize=auto;html=1;exitX=0;exitY=0.5;exitDx=0;exitDy=0;entryX=0.5;entryY=1;entryDx=0;entryDy=0;" edge="1" parent="1" source="O9e-W4EGKh9RpnOx4HyX-48" target="O9e-W4EGKh9RpnOx4HyX-49">
          <mxGeometry relative="1" as="geometry" />
        </mxCell>
        <mxCell id="O9e-W4EGKh9RpnOx4HyX-47" style="edgeStyle=orthogonalEdgeStyle;rounded=0;orthogonalLoop=1;jettySize=auto;html=1;exitX=1;exitY=0.5;exitDx=0;exitDy=0;entryX=0.5;entryY=1;entryDx=0;entryDy=0;" edge="1" parent="1" source="O9e-W4EGKh9RpnOx4HyX-48" target="O9e-W4EGKh9RpnOx4HyX-50">
          <mxGeometry relative="1" as="geometry" />
        </mxCell>
        <mxCell id="O9e-W4EGKh9RpnOx4HyX-48" value="Integración de Sistemas" style="shape=process;whiteSpace=wrap;html=1;backgroundOutline=1;" vertex="1" parent="1">
          <mxGeometry x="1840" y="430" width="120" height="60" as="geometry" />
        </mxCell>
        <mxCell id="O9e-W4EGKh9RpnOx4HyX-49" value="Integración REIAC" style="shape=process;whiteSpace=wrap;html=1;backgroundOutline=1;" vertex="1" parent="1">
          <mxGeometry x="1600" y="370" width="120" height="60" as="geometry" />
        </mxCell>
        <mxCell id="O9e-W4EGKh9RpnOx4HyX-50" value="Integración de Camaras" style="shape=process;whiteSpace=wrap;html=1;backgroundOutline=1;" vertex="1" parent="1">
          <mxGeometry x="2080" y="370" width="120" height="60" as="geometry" />
        </mxCell>
        <mxCell id="O9e-W4EGKh9RpnOx4HyX-51" style="edgeStyle=orthogonalEdgeStyle;rounded=0;orthogonalLoop=1;jettySize=auto;html=1;exitX=0.5;exitY=0;exitDx=0;exitDy=0;entryX=0;entryY=0.5;entryDx=0;entryDy=0;" edge="1" parent="1" source="O9e-W4EGKh9RpnOx4HyX-52" target="O9e-W4EGKh9RpnOx4HyX-49">
          <mxGeometry relative="1" as="geometry" />
        </mxCell>
        <mxCell id="O9e-W4EGKh9RpnOx4HyX-52" value="Verificación REIAC" style="shape=process;whiteSpace=wrap;html=1;backgroundOutline=1;" vertex="1" parent="1">
          <mxGeometry x="520" y="520" width="120" height="60" as="geometry" />
        </mxCell>
        <mxCell id="O9e-W4EGKh9RpnOx4HyX-53" value="MODELO DE REQUERIMIENTOS&lt;div&gt;Magda Jannette Fernández Camargo&lt;/div&gt;" style="rounded=1;whiteSpace=wrap;html=1;fontSize=22;fontStyle=1" vertex="1" parent="1">
          <mxGeometry x="1620.5" y="220" width="559" height="60" as="geometry" />
        </mxCell>
      </root>
    </mxGraphModel>
  </diagram>
  <diagram id="HY31zmjFNkYuN76-ePmm" name="Diagrama Parcial 2">
    <mxGraphModel dx="872" dy="1672" grid="1" gridSize="10" guides="0" tooltips="1" connect="1" arrows="1" fold="1" page="1" pageScale="1" pageWidth="827" pageHeight="1169" math="0" shadow="0">
      <root>
        <mxCell id="0" />
        <mxCell id="1" parent="0" />
        <mxCell id="63KjfcL5WjEioUHbcsD_-1" value="Pelicula" style="swimlane;fontStyle=1;align=center;verticalAlign=top;childLayout=stackLayout;horizontal=1;startSize=26;horizontalStack=0;resizeParent=1;resizeParentMax=0;resizeLast=0;collapsible=1;marginBottom=0;whiteSpace=wrap;html=1;" vertex="1" parent="1">
          <mxGeometry x="25" y="-370" width="160" height="190" as="geometry" />
        </mxCell>
        <mxCell id="63KjfcL5WjEioUHbcsD_-2" value="+ idPelicula: String&lt;br&gt;&lt;div&gt;+ titulo: String&lt;div&gt;+ genero: String&lt;/div&gt;&lt;div&gt;+ director: String&lt;/div&gt;&lt;div&gt;+ actores: Sring&lt;/div&gt;&lt;/div&gt;" style="text;strokeColor=none;fillColor=none;align=left;verticalAlign=top;spacingLeft=4;spacingRight=4;overflow=hidden;rotatable=0;points=[[0,0.5],[1,0.5]];portConstraint=eastwest;whiteSpace=wrap;html=1;" vertex="1" parent="63KjfcL5WjEioUHbcsD_-1">
          <mxGeometry y="26" width="160" height="84" as="geometry" />
        </mxCell>
        <mxCell id="63KjfcL5WjEioUHbcsD_-3" value="" style="line;strokeWidth=1;fillColor=none;align=left;verticalAlign=middle;spacingTop=-1;spacingLeft=3;spacingRight=3;rotatable=0;labelPosition=right;points=[];portConstraint=eastwest;strokeColor=inherit;" vertex="1" parent="63KjfcL5WjEioUHbcsD_-1">
          <mxGeometry y="110" width="160" height="8" as="geometry" />
        </mxCell>
        <mxCell id="63KjfcL5WjEioUHbcsD_-4" value="+ agregarPelicula()&lt;div&gt;&lt;span style=&quot;background-color: initial;&quot;&gt;+ buscarPelicula()&lt;/span&gt;&lt;/div&gt;&lt;div&gt;&lt;span style=&quot;background-color: initial;&quot;&gt;+ filtarGenero()&lt;/span&gt;&lt;/div&gt;&lt;div&gt;&lt;span style=&quot;background-color: initial;&quot;&gt;+ obtenerestadocintas()&lt;/span&gt;&lt;/div&gt;&lt;div&gt;&lt;span style=&quot;background-color: initial;&quot;&gt;&lt;br&gt;&lt;/span&gt;&lt;/div&gt;" style="text;strokeColor=none;fillColor=none;align=left;verticalAlign=top;spacingLeft=4;spacingRight=4;overflow=hidden;rotatable=0;points=[[0,0.5],[1,0.5]];portConstraint=eastwest;whiteSpace=wrap;html=1;" vertex="1" parent="63KjfcL5WjEioUHbcsD_-1">
          <mxGeometry y="118" width="160" height="72" as="geometry" />
        </mxCell>
        <mxCell id="63KjfcL5WjEioUHbcsD_-5" value="Cinta" style="swimlane;fontStyle=1;align=center;verticalAlign=top;childLayout=stackLayout;horizontal=1;startSize=26;horizontalStack=0;resizeParent=1;resizeParentMax=0;resizeLast=0;collapsible=1;marginBottom=0;whiteSpace=wrap;html=1;" vertex="1" parent="1">
          <mxGeometry x="20" y="-70" width="160" height="130" as="geometry" />
        </mxCell>
        <mxCell id="63KjfcL5WjEioUHbcsD_-6" value="+ numeroCinta: string&lt;div&gt;+ disponible: boolean&lt;/div&gt;" style="text;strokeColor=none;fillColor=none;align=left;verticalAlign=top;spacingLeft=4;spacingRight=4;overflow=hidden;rotatable=0;points=[[0,0.5],[1,0.5]];portConstraint=eastwest;whiteSpace=wrap;html=1;" vertex="1" parent="63KjfcL5WjEioUHbcsD_-5">
          <mxGeometry y="26" width="160" height="54" as="geometry" />
        </mxCell>
        <mxCell id="63KjfcL5WjEioUHbcsD_-7" value="" style="line;strokeWidth=1;fillColor=none;align=left;verticalAlign=middle;spacingTop=-1;spacingLeft=3;spacingRight=3;rotatable=0;labelPosition=right;points=[];portConstraint=eastwest;strokeColor=inherit;" vertex="1" parent="63KjfcL5WjEioUHbcsD_-5">
          <mxGeometry y="80" width="160" height="8" as="geometry" />
        </mxCell>
        <mxCell id="63KjfcL5WjEioUHbcsD_-8" value="+ consultarEstado()&lt;div&gt;+ cambiarEstado()&lt;/div&gt;" style="text;strokeColor=none;fillColor=none;align=left;verticalAlign=top;spacingLeft=4;spacingRight=4;overflow=hidden;rotatable=0;points=[[0,0.5],[1,0.5]];portConstraint=eastwest;whiteSpace=wrap;html=1;" vertex="1" parent="63KjfcL5WjEioUHbcsD_-5">
          <mxGeometry y="88" width="160" height="42" as="geometry" />
        </mxCell>
        <mxCell id="63KjfcL5WjEioUHbcsD_-9" value="Prestamo" style="swimlane;fontStyle=1;align=center;verticalAlign=top;childLayout=stackLayout;horizontal=1;startSize=26;horizontalStack=0;resizeParent=1;resizeParentMax=0;resizeLast=0;collapsible=1;marginBottom=0;whiteSpace=wrap;html=1;" vertex="1" parent="1">
          <mxGeometry x="360" y="-67" width="160" height="170" as="geometry" />
        </mxCell>
        <mxCell id="63KjfcL5WjEioUHbcsD_-10" value="+ idPrestamo: String&lt;div&gt;+ fechaPrestamo: Date&lt;div&gt;+ fechaDevolucion: Date&lt;/div&gt;&lt;div&gt;&lt;br&gt;&lt;/div&gt;&lt;/div&gt;" style="text;strokeColor=none;fillColor=none;align=left;verticalAlign=top;spacingLeft=4;spacingRight=4;overflow=hidden;rotatable=0;points=[[0,0.5],[1,0.5]];portConstraint=eastwest;whiteSpace=wrap;html=1;" vertex="1" parent="63KjfcL5WjEioUHbcsD_-9">
          <mxGeometry y="26" width="160" height="74" as="geometry" />
        </mxCell>
        <mxCell id="63KjfcL5WjEioUHbcsD_-54" value="" style="line;strokeWidth=1;fillColor=none;align=left;verticalAlign=middle;spacingTop=-1;spacingLeft=3;spacingRight=3;rotatable=0;labelPosition=right;points=[];portConstraint=eastwest;strokeColor=inherit;" vertex="1" parent="63KjfcL5WjEioUHbcsD_-9">
          <mxGeometry y="100" width="160" height="10" as="geometry" />
        </mxCell>
        <mxCell id="63KjfcL5WjEioUHbcsD_-11" value="" style="line;strokeWidth=1;fillColor=none;align=left;verticalAlign=middle;spacingTop=-1;spacingLeft=3;spacingRight=3;rotatable=0;labelPosition=right;points=[];portConstraint=eastwest;strokeColor=inherit;" vertex="1" parent="63KjfcL5WjEioUHbcsD_-9">
          <mxGeometry y="110" width="160" height="10" as="geometry" />
        </mxCell>
        <mxCell id="63KjfcL5WjEioUHbcsD_-12" value="+ registarPrestamo()&lt;div&gt;+ registrarDevolución()&lt;/div&gt;" style="text;strokeColor=none;fillColor=none;align=left;verticalAlign=top;spacingLeft=4;spacingRight=4;overflow=hidden;rotatable=0;points=[[0,0.5],[1,0.5]];portConstraint=eastwest;whiteSpace=wrap;html=1;" vertex="1" parent="63KjfcL5WjEioUHbcsD_-9">
          <mxGeometry y="120" width="160" height="50" as="geometry" />
        </mxCell>
        <mxCell id="63KjfcL5WjEioUHbcsD_-13" value="Socio" style="swimlane;fontStyle=1;align=center;verticalAlign=top;childLayout=stackLayout;horizontal=1;startSize=26;horizontalStack=0;resizeParent=1;resizeParentMax=0;resizeLast=0;collapsible=1;marginBottom=0;whiteSpace=wrap;html=1;" vertex="1" parent="1">
          <mxGeometry x="360" y="-330" width="160" height="190" as="geometry" />
        </mxCell>
        <mxCell id="63KjfcL5WjEioUHbcsD_-14" value="+ codigoSocio: string&lt;div&gt;+ nombre: string&lt;/div&gt;&lt;div&gt;+ dirección: string&lt;/div&gt;&lt;div&gt;+ telefono: string&lt;/div&gt;&lt;div&gt;+ directoresFavoritos: list&lt;/div&gt;&lt;div&gt;+ generosFavoritos: list&lt;/div&gt;&lt;div&gt;+&lt;/div&gt;" style="text;strokeColor=none;fillColor=none;align=left;verticalAlign=top;spacingLeft=4;spacingRight=4;overflow=hidden;rotatable=0;points=[[0,0.5],[1,0.5]];portConstraint=eastwest;whiteSpace=wrap;html=1;" vertex="1" parent="63KjfcL5WjEioUHbcsD_-13">
          <mxGeometry y="26" width="160" height="104" as="geometry" />
        </mxCell>
        <mxCell id="63KjfcL5WjEioUHbcsD_-15" value="" style="line;strokeWidth=1;fillColor=none;align=left;verticalAlign=middle;spacingTop=-1;spacingLeft=3;spacingRight=3;rotatable=0;labelPosition=right;points=[];portConstraint=eastwest;strokeColor=inherit;" vertex="1" parent="63KjfcL5WjEioUHbcsD_-13">
          <mxGeometry y="130" width="160" height="10" as="geometry" />
        </mxCell>
        <mxCell id="63KjfcL5WjEioUHbcsD_-16" value="+ agregarNuevoSocio()&lt;div&gt;+ registrarSocioEspera()&lt;div&gt;+ modificarSocio()&lt;/div&gt;&lt;div&gt;&lt;br&gt;&lt;/div&gt;&lt;/div&gt;" style="text;strokeColor=none;fillColor=none;align=left;verticalAlign=top;spacingLeft=4;spacingRight=4;overflow=hidden;rotatable=0;points=[[0,0.5],[1,0.5]];portConstraint=eastwest;whiteSpace=wrap;html=1;" vertex="1" parent="63KjfcL5WjEioUHbcsD_-13">
          <mxGeometry y="140" width="160" height="50" as="geometry" />
        </mxCell>
        <mxCell id="63KjfcL5WjEioUHbcsD_-17" value="Lista de Espera" style="swimlane;fontStyle=1;align=center;verticalAlign=top;childLayout=stackLayout;horizontal=1;startSize=26;horizontalStack=0;resizeParent=1;resizeParentMax=0;resizeLast=0;collapsible=1;marginBottom=0;whiteSpace=wrap;html=1;" vertex="1" parent="1">
          <mxGeometry x="361" y="-590" width="160" height="180" as="geometry" />
        </mxCell>
        <mxCell id="63KjfcL5WjEioUHbcsD_-18" value="+ idPelicula: string&lt;div&gt;+ codigoSocio: String&lt;div&gt;+ fechaSolicitud: date&lt;/div&gt;&lt;/div&gt;" style="text;strokeColor=none;fillColor=none;align=left;verticalAlign=top;spacingLeft=4;spacingRight=4;overflow=hidden;rotatable=0;points=[[0,0.5],[1,0.5]];portConstraint=eastwest;whiteSpace=wrap;html=1;" vertex="1" parent="63KjfcL5WjEioUHbcsD_-17">
          <mxGeometry y="26" width="160" height="44" as="geometry" />
        </mxCell>
        <mxCell id="63KjfcL5WjEioUHbcsD_-19" value="" style="line;strokeWidth=1;fillColor=none;align=left;verticalAlign=middle;spacingTop=-1;spacingLeft=3;spacingRight=3;rotatable=0;labelPosition=right;points=[];portConstraint=eastwest;strokeColor=inherit;" vertex="1" parent="63KjfcL5WjEioUHbcsD_-17">
          <mxGeometry y="70" width="160" height="10" as="geometry" />
        </mxCell>
        <mxCell id="63KjfcL5WjEioUHbcsD_-20" value="+ agregarSocioEspera()&lt;div&gt;+ enlistarSociosEspera()&lt;br&gt;&lt;div&gt;+ removerSocioEspera()&lt;/div&gt;&lt;div&gt;+ enlistarPeliculasEséra()&lt;/div&gt;&lt;/div&gt;&lt;div&gt;+ enviarNotificaciones()&lt;/div&gt;" style="text;strokeColor=none;fillColor=none;align=left;verticalAlign=top;spacingLeft=4;spacingRight=4;overflow=hidden;rotatable=0;points=[[0,0.5],[1,0.5]];portConstraint=eastwest;whiteSpace=wrap;html=1;" vertex="1" parent="63KjfcL5WjEioUHbcsD_-17">
          <mxGeometry y="80" width="160" height="100" as="geometry" />
        </mxCell>
        <mxCell id="63KjfcL5WjEioUHbcsD_-39" value="1" style="endArrow=open;html=1;endSize=12;startArrow=diamondThin;startSize=14;startFill=0;edgeStyle=orthogonalEdgeStyle;align=left;verticalAlign=bottom;rounded=0;exitX=0.5;exitY=1.08;exitDx=0;exitDy=0;exitPerimeter=0;" edge="1" parent="1" source="63KjfcL5WjEioUHbcsD_-16" target="63KjfcL5WjEioUHbcsD_-9">
          <mxGeometry x="-0.6404" y="20" relative="1" as="geometry">
            <mxPoint x="453.96000000000004" y="-30" as="sourcePoint" />
            <mxPoint x="470" as="targetPoint" />
            <Array as="points">
              <mxPoint x="440" y="-90" />
              <mxPoint x="440" y="-90" />
            </Array>
            <mxPoint as="offset" />
          </mxGeometry>
        </mxCell>
        <mxCell id="63KjfcL5WjEioUHbcsD_-41" value="*" style="text;html=1;align=center;verticalAlign=middle;resizable=0;points=[];autosize=1;strokeColor=none;fillColor=none;" vertex="1" parent="1">
          <mxGeometry x="439" y="-90" width="30" height="30" as="geometry" />
        </mxCell>
        <mxCell id="63KjfcL5WjEioUHbcsD_-43" value="1" style="endArrow=open;html=1;endSize=12;startArrow=diamondThin;startSize=14;startFill=1;edgeStyle=orthogonalEdgeStyle;align=left;verticalAlign=bottom;rounded=0;exitX=0.494;exitY=0.99;exitDx=0;exitDy=0;exitPerimeter=0;entryX=0.5;entryY=0;entryDx=0;entryDy=0;" edge="1" parent="1" source="63KjfcL5WjEioUHbcsD_-20" target="63KjfcL5WjEioUHbcsD_-13">
          <mxGeometry x="-0.4816" y="10" relative="1" as="geometry">
            <mxPoint x="440" y="-40" as="sourcePoint" />
            <mxPoint x="600" y="-40" as="targetPoint" />
            <mxPoint as="offset" />
          </mxGeometry>
        </mxCell>
        <mxCell id="63KjfcL5WjEioUHbcsD_-44" value="*" style="text;html=1;align=center;verticalAlign=middle;resizable=0;points=[];autosize=1;strokeColor=none;fillColor=none;" vertex="1" parent="1">
          <mxGeometry x="450" y="-380" width="30" height="30" as="geometry" />
        </mxCell>
        <mxCell id="63KjfcL5WjEioUHbcsD_-48" value="1" style="endArrow=open;html=1;endSize=12;startArrow=diamondThin;startSize=14;startFill=1;edgeStyle=orthogonalEdgeStyle;align=left;verticalAlign=bottom;rounded=0;entryX=0.5;entryY=0;entryDx=0;entryDy=0;exitX=0;exitY=0.5;exitDx=0;exitDy=0;" edge="1" parent="1" source="63KjfcL5WjEioUHbcsD_-20" target="63KjfcL5WjEioUHbcsD_-1">
          <mxGeometry x="-0.9263" y="20" relative="1" as="geometry">
            <mxPoint x="290" y="-170" as="sourcePoint" />
            <mxPoint x="600" y="30" as="targetPoint" />
            <mxPoint as="offset" />
          </mxGeometry>
        </mxCell>
        <mxCell id="63KjfcL5WjEioUHbcsD_-49" value="*" style="text;html=1;align=center;verticalAlign=middle;resizable=0;points=[];autosize=1;strokeColor=none;fillColor=none;" vertex="1" parent="1">
          <mxGeometry x="120" y="-410" width="30" height="30" as="geometry" />
        </mxCell>
        <mxCell id="63KjfcL5WjEioUHbcsD_-51" value="1" style="endArrow=open;html=1;endSize=12;startArrow=diamondThin;startSize=14;startFill=1;edgeStyle=orthogonalEdgeStyle;align=left;verticalAlign=bottom;rounded=0;exitX=0.469;exitY=1.014;exitDx=0;exitDy=0;exitPerimeter=0;entryX=0.5;entryY=0;entryDx=0;entryDy=0;" edge="1" parent="1" source="63KjfcL5WjEioUHbcsD_-4" target="63KjfcL5WjEioUHbcsD_-5">
          <mxGeometry x="-0.7396" y="15" relative="1" as="geometry">
            <mxPoint x="440" y="440" as="sourcePoint" />
            <mxPoint x="600" y="440" as="targetPoint" />
            <mxPoint as="offset" />
          </mxGeometry>
        </mxCell>
        <mxCell id="63KjfcL5WjEioUHbcsD_-52" value="*" style="text;html=1;align=center;verticalAlign=middle;resizable=0;points=[];autosize=1;strokeColor=none;fillColor=none;" vertex="1" parent="1">
          <mxGeometry x="130" y="-110" width="30" height="30" as="geometry" />
        </mxCell>
        <mxCell id="63KjfcL5WjEioUHbcsD_-53" value="1" style="endArrow=open;html=1;endSize=12;startArrow=diamondThin;startSize=14;startFill=0;edgeStyle=orthogonalEdgeStyle;align=left;verticalAlign=bottom;rounded=0;exitX=0;exitY=0.5;exitDx=0;exitDy=0;entryX=1.019;entryY=0.741;entryDx=0;entryDy=0;entryPerimeter=0;" edge="1" parent="1" source="63KjfcL5WjEioUHbcsD_-10" target="63KjfcL5WjEioUHbcsD_-6">
          <mxGeometry x="-0.7739" y="24" relative="1" as="geometry">
            <mxPoint x="440" y="30" as="sourcePoint" />
            <mxPoint x="600" y="30" as="targetPoint" />
            <mxPoint as="offset" />
          </mxGeometry>
        </mxCell>
        <mxCell id="63KjfcL5WjEioUHbcsD_-55" value="*" style="text;html=1;align=center;verticalAlign=middle;resizable=0;points=[];autosize=1;strokeColor=none;fillColor=none;" vertex="1" parent="1">
          <mxGeometry x="185" y="-2" width="30" height="30" as="geometry" />
        </mxCell>
        <mxCell id="63KjfcL5WjEioUHbcsD_-56" value="&lt;b&gt;&lt;i&gt;&amp;nbsp;MODELO DE CLASES DE ANÁLISIS Y DISEÑO&lt;/i&gt;&lt;/b&gt;" style="text;html=1;align=center;verticalAlign=middle;resizable=0;points=[];autosize=1;strokeColor=none;fillColor=none;" vertex="1" parent="1">
          <mxGeometry x="150" y="-670" width="290" height="30" as="geometry" />
        </mxCell>
      </root>
    </mxGraphModel>
  </diagram>
  <diagram id="wGe9KnZNaUIqfIHf-jBY" name="Página-3">
    <mxGraphModel dx="1112" dy="1672" grid="1" gridSize="10" guides="1" tooltips="1" connect="1" arrows="1" fold="1" page="1" pageScale="1" pageWidth="827" pageHeight="1169" math="0" shadow="0">
      <root>
        <mxCell id="0" />
        <mxCell id="1" parent="0" />
        <mxCell id="ihEqg4042zLQqD2KTBmF-7" value="Sistema de Empleados&lt;div&gt;&lt;br&gt;&lt;/div&gt;" style="html=1;whiteSpace=wrap;align=left;verticalAlign=top;" vertex="1" parent="1">
          <mxGeometry x="280" y="120" width="680" height="530" as="geometry" />
        </mxCell>
        <mxCell id="ihEqg4042zLQqD2KTBmF-12" style="edgeStyle=orthogonalEdgeStyle;rounded=0;orthogonalLoop=1;jettySize=auto;html=1;exitX=0.5;exitY=0.5;exitDx=0;exitDy=0;exitPerimeter=0;" edge="1" parent="1" source="ihEqg4042zLQqD2KTBmF-1" target="ihEqg4042zLQqD2KTBmF-9">
          <mxGeometry relative="1" as="geometry" />
        </mxCell>
        <mxCell id="6KDpKbnk__DIjyfVDtQC-9" style="edgeStyle=orthogonalEdgeStyle;rounded=0;orthogonalLoop=1;jettySize=auto;html=1;entryX=0;entryY=0.5;entryDx=0;entryDy=0;" edge="1" parent="1" source="ihEqg4042zLQqD2KTBmF-1" target="ihEqg4042zLQqD2KTBmF-8">
          <mxGeometry relative="1" as="geometry" />
        </mxCell>
        <mxCell id="6KDpKbnk__DIjyfVDtQC-10" style="edgeStyle=orthogonalEdgeStyle;rounded=0;orthogonalLoop=1;jettySize=auto;html=1;entryX=0;entryY=0.5;entryDx=0;entryDy=0;" edge="1" parent="1" source="ihEqg4042zLQqD2KTBmF-1" target="ihEqg4042zLQqD2KTBmF-10">
          <mxGeometry relative="1" as="geometry" />
        </mxCell>
        <mxCell id="ihEqg4042zLQqD2KTBmF-1" value="Empleado" style="shape=umlActor;verticalLabelPosition=bottom;verticalAlign=top;html=1;" vertex="1" parent="1">
          <mxGeometry x="89" y="245" width="100" height="160" as="geometry" />
        </mxCell>
        <mxCell id="ihEqg4042zLQqD2KTBmF-17" style="edgeStyle=orthogonalEdgeStyle;rounded=0;orthogonalLoop=1;jettySize=auto;html=1;exitX=1;exitY=0.5;exitDx=0;exitDy=0;" edge="1" parent="1" source="ihEqg4042zLQqD2KTBmF-8" target="ihEqg4042zLQqD2KTBmF-14">
          <mxGeometry relative="1" as="geometry" />
        </mxCell>
        <mxCell id="ihEqg4042zLQqD2KTBmF-8" value="Gestionar Socios" style="ellipse;whiteSpace=wrap;html=1;" vertex="1" parent="1">
          <mxGeometry x="344" y="190" width="140" height="70" as="geometry" />
        </mxCell>
        <mxCell id="Px-0BKtqwEiPhwYEZka8-2" style="edgeStyle=orthogonalEdgeStyle;rounded=0;orthogonalLoop=1;jettySize=auto;html=1;" edge="1" parent="1" source="ihEqg4042zLQqD2KTBmF-9" target="Px-0BKtqwEiPhwYEZka8-1">
          <mxGeometry relative="1" as="geometry" />
        </mxCell>
        <mxCell id="ihEqg4042zLQqD2KTBmF-9" value="Gestionar Películas" style="ellipse;whiteSpace=wrap;html=1;" vertex="1" parent="1">
          <mxGeometry x="344" y="305" width="140" height="70" as="geometry" />
        </mxCell>
        <mxCell id="6KDpKbnk__DIjyfVDtQC-5" style="edgeStyle=orthogonalEdgeStyle;rounded=0;orthogonalLoop=1;jettySize=auto;html=1;" edge="1" parent="1" source="ihEqg4042zLQqD2KTBmF-10" target="6KDpKbnk__DIjyfVDtQC-4">
          <mxGeometry relative="1" as="geometry" />
        </mxCell>
        <mxCell id="6KDpKbnk__DIjyfVDtQC-8" style="edgeStyle=orthogonalEdgeStyle;rounded=0;orthogonalLoop=1;jettySize=auto;html=1;entryX=0;entryY=0.5;entryDx=0;entryDy=0;" edge="1" parent="1" source="ihEqg4042zLQqD2KTBmF-10" target="6KDpKbnk__DIjyfVDtQC-6">
          <mxGeometry relative="1" as="geometry" />
        </mxCell>
        <mxCell id="ihEqg4042zLQqD2KTBmF-10" value="Gestionar Prestamos" style="ellipse;whiteSpace=wrap;html=1;" vertex="1" parent="1">
          <mxGeometry x="344" y="470" width="140" height="70" as="geometry" />
        </mxCell>
        <mxCell id="ihEqg4042zLQqD2KTBmF-18" style="edgeStyle=orthogonalEdgeStyle;rounded=0;orthogonalLoop=1;jettySize=auto;html=1;" edge="1" parent="1" source="ihEqg4042zLQqD2KTBmF-14" target="ihEqg4042zLQqD2KTBmF-16">
          <mxGeometry relative="1" as="geometry" />
        </mxCell>
        <mxCell id="ihEqg4042zLQqD2KTBmF-19" style="edgeStyle=orthogonalEdgeStyle;rounded=0;orthogonalLoop=1;jettySize=auto;html=1;entryX=0;entryY=0.5;entryDx=0;entryDy=0;" edge="1" parent="1" source="ihEqg4042zLQqD2KTBmF-14" target="ihEqg4042zLQqD2KTBmF-15">
          <mxGeometry relative="1" as="geometry" />
        </mxCell>
        <mxCell id="ihEqg4042zLQqD2KTBmF-14" value="Registrar socio" style="ellipse;whiteSpace=wrap;html=1;" vertex="1" parent="1">
          <mxGeometry x="540" y="190" width="140" height="70" as="geometry" />
        </mxCell>
        <mxCell id="ihEqg4042zLQqD2KTBmF-15" value="Actualizar Socio" style="ellipse;whiteSpace=wrap;html=1;" vertex="1" parent="1">
          <mxGeometry x="740" y="220" width="140" height="70" as="geometry" />
        </mxCell>
        <mxCell id="ihEqg4042zLQqD2KTBmF-16" value="Consultar Socio" style="ellipse;whiteSpace=wrap;html=1;" vertex="1" parent="1">
          <mxGeometry x="740" y="140" width="140" height="70" as="geometry" />
        </mxCell>
        <mxCell id="Px-0BKtqwEiPhwYEZka8-1" value="Registrar Películas" style="ellipse;whiteSpace=wrap;html=1;" vertex="1" parent="1">
          <mxGeometry x="540" y="305" width="140" height="70" as="geometry" />
        </mxCell>
        <mxCell id="W4ayGgG8Jn4VsMfBZPEi-1" value="Sistema de Socio&lt;div&gt;&lt;br&gt;&lt;/div&gt;" style="html=1;whiteSpace=wrap;align=left;verticalAlign=top;" vertex="1" parent="1">
          <mxGeometry x="270" y="-240" width="690" height="320" as="geometry" />
        </mxCell>
        <mxCell id="5eBH09w_H_rkRB0gM5nQ-3" style="edgeStyle=orthogonalEdgeStyle;rounded=0;orthogonalLoop=1;jettySize=auto;html=1;" edge="1" parent="1" source="W4ayGgG8Jn4VsMfBZPEi-2" target="5eBH09w_H_rkRB0gM5nQ-2">
          <mxGeometry relative="1" as="geometry" />
        </mxCell>
        <mxCell id="W4ayGgG8Jn4VsMfBZPEi-2" value="Consultar película" style="ellipse;whiteSpace=wrap;html=1;" vertex="1" parent="1">
          <mxGeometry x="314" y="-210" width="140" height="70" as="geometry" />
        </mxCell>
        <mxCell id="W4ayGgG8Jn4VsMfBZPEi-3" value="Registrarse en Lista de Espera" style="ellipse;whiteSpace=wrap;html=1;" vertex="1" parent="1">
          <mxGeometry x="314" y="-110" width="140" height="70" as="geometry" />
        </mxCell>
        <mxCell id="6KDpKbnk__DIjyfVDtQC-1" value="Modificar Película" style="ellipse;whiteSpace=wrap;html=1;" vertex="1" parent="1">
          <mxGeometry x="730" y="305" width="140" height="70" as="geometry" />
        </mxCell>
        <mxCell id="6KDpKbnk__DIjyfVDtQC-4" value="Registrar Préstamo" style="ellipse;whiteSpace=wrap;html=1;" vertex="1" parent="1">
          <mxGeometry x="540" y="400" width="140" height="70" as="geometry" />
        </mxCell>
        <mxCell id="5eBH09w_H_rkRB0gM5nQ-5" style="edgeStyle=orthogonalEdgeStyle;rounded=0;orthogonalLoop=1;jettySize=auto;html=1;" edge="1" parent="1" source="6KDpKbnk__DIjyfVDtQC-6" target="5eBH09w_H_rkRB0gM5nQ-4">
          <mxGeometry relative="1" as="geometry" />
        </mxCell>
        <mxCell id="6KDpKbnk__DIjyfVDtQC-6" value="Registrar Devolución" style="ellipse;whiteSpace=wrap;html=1;" vertex="1" parent="1">
          <mxGeometry x="540" y="530" width="140" height="70" as="geometry" />
        </mxCell>
        <mxCell id="5eBH09w_H_rkRB0gM5nQ-1" value="Actualizar Datos" style="ellipse;whiteSpace=wrap;html=1;" vertex="1" parent="1">
          <mxGeometry x="320" y="-10" width="140" height="70" as="geometry" />
        </mxCell>
        <mxCell id="5eBH09w_H_rkRB0gM5nQ-2" value="Verificar&amp;nbsp;&lt;div&gt;disponibilidad&lt;div&gt;de película&lt;/div&gt;&lt;/div&gt;" style="ellipse;whiteSpace=wrap;html=1;" vertex="1" parent="1">
          <mxGeometry x="510" y="-210" width="140" height="70" as="geometry" />
        </mxCell>
        <mxCell id="5eBH09w_H_rkRB0gM5nQ-4" value="Enviar Notificación&lt;div&gt;Socio en&amp;nbsp;&lt;/div&gt;&lt;div&gt;Lista de Espera&lt;/div&gt;" style="ellipse;whiteSpace=wrap;html=1;" vertex="1" parent="1">
          <mxGeometry x="750" y="530" width="140" height="70" as="geometry" />
        </mxCell>
        <mxCell id="5eBH09w_H_rkRB0gM5nQ-7" style="edgeStyle=orthogonalEdgeStyle;rounded=0;orthogonalLoop=1;jettySize=auto;html=1;exitX=0.5;exitY=0.5;exitDx=0;exitDy=0;exitPerimeter=0;entryX=0;entryY=0.5;entryDx=0;entryDy=0;" edge="1" parent="1" source="5eBH09w_H_rkRB0gM5nQ-6" target="W4ayGgG8Jn4VsMfBZPEi-2">
          <mxGeometry relative="1" as="geometry">
            <Array as="points">
              <mxPoint x="250" y="-75" />
              <mxPoint x="250" y="-175" />
            </Array>
          </mxGeometry>
        </mxCell>
        <mxCell id="5eBH09w_H_rkRB0gM5nQ-8" style="edgeStyle=orthogonalEdgeStyle;rounded=0;orthogonalLoop=1;jettySize=auto;html=1;" edge="1" parent="1" source="5eBH09w_H_rkRB0gM5nQ-6" target="5eBH09w_H_rkRB0gM5nQ-1">
          <mxGeometry relative="1" as="geometry">
            <Array as="points">
              <mxPoint x="250" y="-75" />
              <mxPoint x="250" y="25" />
            </Array>
          </mxGeometry>
        </mxCell>
        <mxCell id="5eBH09w_H_rkRB0gM5nQ-9" style="edgeStyle=orthogonalEdgeStyle;rounded=0;orthogonalLoop=1;jettySize=auto;html=1;entryX=0;entryY=0.5;entryDx=0;entryDy=0;" edge="1" parent="1" source="5eBH09w_H_rkRB0gM5nQ-6" target="W4ayGgG8Jn4VsMfBZPEi-3">
          <mxGeometry relative="1" as="geometry" />
        </mxCell>
        <mxCell id="5eBH09w_H_rkRB0gM5nQ-6" value="Empleado" style="shape=umlActor;verticalLabelPosition=bottom;verticalAlign=top;html=1;" vertex="1" parent="1">
          <mxGeometry x="90" y="-155" width="100" height="160" as="geometry" />
        </mxCell>
        <mxCell id="5eBH09w_H_rkRB0gM5nQ-10" value="&amp;lt;&amp;lt;extend&amp;gt;&amp;gt;" style="text;html=1;align=center;verticalAlign=middle;resizable=0;points=[];autosize=1;strokeColor=none;fillColor=none;" vertex="1" parent="1">
          <mxGeometry x="5" y="-382" width="90" height="30" as="geometry" />
        </mxCell>
        <mxCell id="5eBH09w_H_rkRB0gM5nQ-12" value="&amp;lt;&amp;lt;extend&amp;gt;&amp;gt;" style="html=1;verticalAlign=bottom;endArrow=open;dashed=1;endSize=8;curved=0;rounded=0;entryX=1;entryY=0.5;entryDx=0;entryDy=0;exitX=0.5;exitY=0;exitDx=0;exitDy=0;" edge="1" parent="1" source="ihEqg4042zLQqD2KTBmF-14" target="5eBH09w_H_rkRB0gM5nQ-1">
          <mxGeometry relative="1" as="geometry">
            <mxPoint x="580" y="40" as="sourcePoint" />
            <mxPoint x="500" y="40" as="targetPoint" />
          </mxGeometry>
        </mxCell>
        <mxCell id="5eBH09w_H_rkRB0gM5nQ-14" value="&amp;lt;&amp;lt;extend&amp;gt;&amp;gt;" style="html=1;verticalAlign=bottom;endArrow=open;dashed=1;endSize=8;curved=0;rounded=0;exitX=0.5;exitY=0;exitDx=0;exitDy=0;entryX=1;entryY=0.5;entryDx=0;entryDy=0;" edge="1" parent="1" source="ihEqg4042zLQqD2KTBmF-14" target="W4ayGgG8Jn4VsMfBZPEi-3">
          <mxGeometry relative="1" as="geometry">
            <mxPoint x="580" y="40" as="sourcePoint" />
            <mxPoint x="500" y="40" as="targetPoint" />
          </mxGeometry>
        </mxCell>
        <mxCell id="5eBH09w_H_rkRB0gM5nQ-18" value="&amp;lt;&amp;lt;extend&amp;gt;&amp;gt;" style="html=1;verticalAlign=bottom;endArrow=open;dashed=1;endSize=8;curved=0;rounded=0;exitX=0.5;exitY=0;exitDx=0;exitDy=0;entryX=1;entryY=0.5;entryDx=0;entryDy=0;" edge="1" parent="1" source="ihEqg4042zLQqD2KTBmF-14" target="W4ayGgG8Jn4VsMfBZPEi-2">
          <mxGeometry relative="1" as="geometry">
            <mxPoint x="580" y="40" as="sourcePoint" />
            <mxPoint x="500" y="40" as="targetPoint" />
          </mxGeometry>
        </mxCell>
        <mxCell id="5eBH09w_H_rkRB0gM5nQ-20" value="&amp;lt;&amp;lt;extend&amp;gt;&amp;gt;" style="html=1;verticalAlign=bottom;endArrow=open;dashed=1;endSize=8;curved=0;rounded=0;exitX=0;exitY=0.5;exitDx=0;exitDy=0;" edge="1" parent="1" source="6KDpKbnk__DIjyfVDtQC-1" target="Px-0BKtqwEiPhwYEZka8-1">
          <mxGeometry relative="1" as="geometry">
            <mxPoint x="720" y="270" as="sourcePoint" />
            <mxPoint x="640" y="270" as="targetPoint" />
          </mxGeometry>
        </mxCell>
        <mxCell id="5eBH09w_H_rkRB0gM5nQ-21" value="&amp;lt;&amp;lt;extend&amp;gt;&amp;gt;" style="html=1;verticalAlign=bottom;endArrow=open;dashed=1;endSize=8;curved=0;rounded=0;exitX=0.5;exitY=0;exitDx=0;exitDy=0;entryX=0.5;entryY=1;entryDx=0;entryDy=0;" edge="1" parent="1" source="6KDpKbnk__DIjyfVDtQC-6" target="6KDpKbnk__DIjyfVDtQC-4">
          <mxGeometry x="-0.3333" y="10" relative="1" as="geometry">
            <mxPoint x="720" y="370" as="sourcePoint" />
            <mxPoint x="640" y="370" as="targetPoint" />
            <mxPoint as="offset" />
          </mxGeometry>
        </mxCell>
      </root>
    </mxGraphModel>
  </diagram>
</mxfile>
